<svg xmlns="http://www.w3.org/2000/svg" viewBox="0 0 512 512">
  <style>
    :root {
      --color-white: hsl(0, 0%, 100%);
      --color-light-blue: hsl(215, 100%, 97%);
      --color-medium-blue: hsl(215, 90%, 60%);
      --color-dark-blue: hsl(215, 90%, 20%);
      --color-text-blue-dark: hsl(215, 90%, 20%);
      --color-text-blue-medium: hsl(215, 90%, 40%);
      --color-text-blue-light: hsl(215, 90%, 60%);
      --stroke-width-default: 14;
    }
  </style>
  <circle cx="256" cy="256" r="256" fill="hsl(0, 0%, 100%)"/>
  <!-- Graphic Element: Stylized Calendar -->
  <g transform="translate(81, 20) scale(1.4)">
    <rect x="20" y="40" width="210" height="180" rx="25" 
        fill="hsl(215, 100%, 97%)" 
        stroke="hsl(215, 90%, 60%)" 
        stroke-width="14"/>
    <path d="M70 20 v30 M180 20 v30"
        z-index="-1"
        stroke="hsl(215, 90%, 20%)"
        stroke-width="14"
        stroke-linecap="round"/>
    <rect x="20" y="80" width="210" 
      height="10" 
      fill="hsl(215, 90%, 60%)"/>
    <!-- Checkmark -->
    <path d="M80 150 l30 45 l60 -80" 
          stroke="hsl(215, 90%, 20%)" 
          stroke-width="14"
          fill="none" 
          stroke-linecap="round" 
          stroke-linejoin="round"/>
  </g>
  
  <!-- Text -->
  
  <g>
                    <path d="M92.14 355.02L105.95 355.02L127.14 402.77L114.36 402.77L110.43 393.33L89.07 393.33L85.51 402.77L72.90 402.77L92.14 355.02ZM92.21 384.99L106.91 384.99L99.22 366.43L92.21 384.99ZM131.35 370.50L141.50 370.50L141.50 373.30Q145.57 369.85 150.73 369.85L150.73 369.85Q157.02 369.85 161.36 374.60Q165.70 379.35 165.70 386.26L165.70 386.26Q165.70 394.02 161.34 398.70Q156.98 403.38 149.80 403.38L149.80 403.38Q145.36 403.38 141.50 401.16L141.50 401.16L141.50 418.86L131.35 418.86L131.35 370.50ZM141.50 379.66L141.50 379.66L141.50 394.49Q144.37 396.61 147.38 396.61L147.38 396.61Q151.07 396.61 153.24 393.96Q155.41 391.32 155.41 386.80L155.41 386.80Q155.41 382.19 153.41 379.63Q151.41 377.06 147.79 377.06L147.79 377.06Q144.75 377.06 141.50 379.66ZM172.16 370.50L182.31 370.50L182.31 373.30Q186.38 369.85 191.54 369.85L191.54 369.85Q197.83 369.85 202.17 374.60Q206.51 379.35 206.51 386.26L206.51 386.26Q206.51 394.02 202.15 398.70Q197.79 403.38 190.61 403.38L190.61 403.38Q186.17 403.38 182.31 401.16L182.31 401.16L182.31 418.86L172.16 418.86L172.16 370.50ZM182.31 379.66L182.31 379.66L182.31 394.49Q185.18 396.61 188.19 396.61L188.19 396.61Q191.88 396.61 194.05 393.96Q196.22 391.32 196.22 386.80L196.22 386.80Q196.22 382.19 194.22 379.63Q192.22 377.06 188.60 377.06L188.60 377.06Q185.56 377.06 182.31 379.66Z" fill="hsl(215, 90%, 20%)" />
                    <path d="M229.82 369.85L229.82 369.85Q237.41 369.85 242.69 374.29Q247.97 378.74 247.97 386.67L247.97 386.67Q247.97 394.63 242.60 399.01Q237.24 403.38 229.82 403.38L229.82 403.38Q221.79 403.38 216.68 398.72Q211.57 394.05 211.57 386.60L211.57 386.60Q211.57 379.01 216.78 374.43Q221.99 369.85 229.82 369.85ZM229.82 397.36L229.82 397.36Q237.10 397.36 237.10 386.39L237.10 386.39Q237.10 375.90 229.82 375.90L229.82 375.90Q226.33 375.90 224.37 378.67Q222.40 381.44 222.40 386.60L222.40 386.60Q222.40 397.36 229.82 397.36ZM254.43 360.01L254.43 360.01Q254.43 357.68 256.07 356.04Q257.71 354.40 260.00 354.40L260.00 354.40Q262.32 354.40 263.96 356.04Q265.60 357.68 265.60 360.01L265.60 360.01Q265.60 362.30 263.96 363.95Q262.32 365.61 260.00 365.61L260.00 365.61Q257.71 365.61 256.07 363.95Q254.43 362.30 254.43 360.01ZM254.97 370.50L265.13 370.50L265.13 402.77L254.97 402.77L254.97 370.50ZM273.74 370.50L283.89 370.50L283.89 375.11Q288.37 369.85 294.38 369.85L294.38 369.85Q299.41 369.85 302.77 373.06Q306.14 376.28 306.14 382.26L306.14 382.26L306.14 402.77L295.99 402.77L295.99 383.11Q295.99 376.65 290.97 376.65L290.97 376.65Q287.38 376.65 283.89 381.98L283.89 381.98L283.89 402.77L273.74 402.77L273.74 370.50ZM325.97 370.50L337.72 370.50L337.72 377.44L325.97 377.44L325.97 390.73Q325.97 393.13 327.28 394.51Q328.60 395.90 330.92 395.90L330.92 395.90Q334.07 395.90 337.72 394.02L337.72 394.02L337.72 401.36Q332.87 403.38 328.32 403.38L328.32 403.38Q322.38 403.38 319.10 400.30Q315.81 397.23 315.81 391.28L315.81 391.28L315.81 377.44L311.20 377.44L311.20 375.46L324.70 360.35L325.97 360.35L325.97 370.50Z" fill="hsl(215, 90%, 40%)" />
                    <path d="M354.44 355.02L369.75 372.72L385.10 355.02L395.45 355.02L395.45 402.77L383.56 402.77L383.56 372.96L370.67 387.93L368.86 387.93L355.98 372.96L355.98 402.77L344.08 402.77L344.08 355.02L354.44 355.02ZM436.37 392.75L436.37 392.75L436.37 399.14Q430.56 403.38 421.98 403.38L421.98 403.38Q413.47 403.38 408.37 398.82Q403.28 394.25 403.28 386.74L403.28 386.74Q403.28 379.35 408.07 374.60Q412.85 369.85 420.27 369.85L420.27 369.85Q427.72 369.85 432.49 374.86Q437.25 379.86 436.95 388.27L436.95 388.27L413.77 388.27Q414.08 392.65 416.88 395.01Q419.69 397.36 424.40 397.36L424.40 397.36Q430.11 397.36 436.37 392.75ZM413.98 382.94L413.98 382.94L427.99 382.94Q427.17 375.90 420.99 375.90L420.99 375.90Q414.73 375.90 413.98 382.94Z" fill="hsl(215, 90%, 60%)" />
                </g>
</svg>
